<svg width="1051" height="269" viewBox="0 0 1051 269" fill="none" xmlns="http://www.w3.org/2000/svg">
<g clip-path="url(#clip0_11004_28884)">
<path d="M432.15 203.141C443.249 203.141 447.17 209.635 445.297 220.293L440.693 246.388C440.694 246.688 440.63 246.985 440.505 247.258C440.38 247.531 440.197 247.773 439.969 247.968C439.74 248.163 439.472 248.306 439.183 248.386C438.894 248.467 438.591 248.484 438.294 248.436H434.793C433.253 248.436 432.833 247.928 433.165 246.388L437.769 219.961C438.96 213.38 436.579 210.142 430.014 210.142C426.396 210.22 422.828 211.005 419.511 212.452C420.04 214.839 420.04 217.312 419.511 219.698L414.819 246.388C414.823 246.687 414.761 246.984 414.638 247.257C414.515 247.53 414.334 247.772 414.107 247.967C413.88 248.163 413.613 248.306 413.325 248.387C413.036 248.468 412.734 248.484 412.438 248.436H408.85C407.309 248.436 406.889 247.928 407.221 246.388L411.843 219.961C413.121 212.96 410.303 210.142 403.895 210.142C401.082 210.105 398.284 210.567 395.633 211.507C395.258 211.633 394.93 211.866 394.687 212.177C394.444 212.488 394.298 212.864 394.267 213.257L388.455 246.353C388.123 247.893 387.527 248.401 385.987 248.401H382.486C381.033 248.401 380.613 247.893 380.875 246.353L386.88 210.825C386.981 209.692 387.429 208.617 388.161 207.747C388.894 206.877 389.877 206.253 390.976 205.959C395.748 204.038 400.852 203.08 405.996 203.141C410.688 203.141 414.101 204.349 416.325 206.642C421.296 204.38 426.688 203.187 432.15 203.141Z" fill="#253746"/>
<path d="M500.668 206.519L492.913 250.606C490.952 261.702 484.475 269.035 471.328 269.035C462.12 269.035 457.761 265.534 455.713 260.284C454.943 258.831 455.45 257.729 457.078 256.959L459.634 255.769C461.385 254.911 462.033 255.174 462.803 256.521C464.168 260.021 466.724 262.244 472.344 262.244C479.766 262.244 483.95 258.149 485.228 250.991L486.086 246.388C482.097 247.514 477.976 248.103 473.832 248.138C461.98 248.138 457.796 241.312 459.669 230.636L463.906 206.519C463.904 206.219 463.968 205.922 464.094 205.649C464.219 205.376 464.402 205.134 464.63 204.939C464.858 204.744 465.126 204.601 465.415 204.521C465.704 204.44 466.008 204.423 466.304 204.471H469.805C471.346 204.471 471.766 204.979 471.433 206.519L467.162 231.021C465.971 237.759 468.615 241.172 476.125 241.172C479.914 241.143 483.677 240.553 487.294 239.422L493.158 206.519C493.403 204.979 493.998 204.471 495.539 204.471H499.128C500.668 204.436 501.088 204.944 500.668 206.519Z" fill="#253746"/>
<path d="M562.078 203.142C574.332 203.142 580.249 209.722 578.464 219.873L576.083 233.769C574.332 243.92 566.525 249.731 554.236 249.731C541.946 249.731 536.064 243.325 537.763 233.174L540.248 219.278C542.034 209.197 550.052 203.142 562.078 203.142ZM561.063 210.142C553.885 210.142 548.949 213.643 547.828 219.523L545.448 233.524C544.345 239.405 548.091 242.905 555.251 242.905C562.411 242.905 567.365 239.405 568.485 233.524L570.954 219.523C571.987 213.52 568.31 210.02 561.063 210.02V210.142Z" fill="#253746"/>
<path d="M650.641 206.817L631.787 246.773C631.543 247.367 631.107 247.862 630.549 248.18C629.99 248.497 629.341 248.618 628.706 248.523H626.15C624.522 248.523 623.769 248.103 623.682 246.773L620.513 221.605C620.093 218.105 620.355 214.36 620.18 213.677H619.918C619.673 214.36 618.395 218.105 616.854 221.605L604.828 246.773C604.563 247.37 604.11 247.865 603.538 248.181C602.966 248.497 602.306 248.617 601.659 248.523H599.453C597.913 248.523 597.143 248.19 596.968 246.773L592.031 206.764C591.856 204.891 592.188 204.384 594.167 204.384H596.547C599.016 204.384 599.786 204.716 599.786 206.431L602.184 229.534C602.342 232.946 602.009 238.162 602.184 239.09H602.429C602.937 238.162 604.478 233.034 606.106 229.446L617.187 207.114C617.957 205.364 618.465 204.979 620.863 204.979H622.316C624.697 204.979 625.135 205.399 625.292 207.027L628.461 229.271C628.739 232.53 628.85 235.802 628.793 239.072H629.143C629.564 238.144 630.754 233.612 632.645 229.359L642.868 206.519C643.638 204.769 644.408 204.471 646.877 204.471H649.468C651.411 204.436 651.498 204.944 650.641 206.817Z" fill="#253746"/>
<path d="M684.165 203.141C696.104 203.141 700.288 209.967 698.502 220.643L693.898 246.388C693.635 247.928 693.04 248.435 691.5 248.435H687.981C686.458 248.435 686.108 247.928 686.37 246.388L690.974 220.293C692.165 213.555 689.346 210.142 682.011 210.142C678.57 210.157 675.149 210.676 671.858 211.682C671.513 211.777 671.206 211.976 670.977 212.252C670.749 212.527 670.61 212.866 670.58 213.222L664.786 246.475C664.435 248.015 663.84 248.523 662.3 248.523H658.799C657.346 248.523 656.908 248.015 657.171 246.475L663.403 210.912C663.477 209.78 663.917 208.703 664.656 207.841C665.394 206.98 666.392 206.381 667.499 206.134C672.819 204.108 678.472 203.093 684.165 203.141Z" fill="#253746"/>
<path d="M787.764 203.141C798.863 203.141 802.784 209.635 800.911 220.293L796.29 246.388C796.294 246.687 796.232 246.984 796.109 247.257C795.986 247.53 795.804 247.772 795.577 247.967C795.351 248.163 795.083 248.306 794.795 248.387C794.507 248.468 794.204 248.484 793.909 248.436H790.32C788.797 248.436 788.36 247.928 788.71 246.388L793.314 219.961C794.504 213.38 792.123 210.142 785.541 210.142C781.922 210.217 778.354 211.002 775.038 212.452C775.549 214.84 775.549 217.31 775.038 219.698L770.346 246.388C770.347 246.688 770.283 246.985 770.158 247.258C770.033 247.531 769.85 247.773 769.622 247.968C769.394 248.163 769.126 248.306 768.836 248.386C768.547 248.467 768.244 248.484 767.948 248.436H764.447C762.906 248.436 762.486 247.928 762.819 246.388L767.423 219.961C768.701 212.96 765.9 210.142 759.492 210.142C756.674 210.107 753.871 210.569 751.212 211.507C750.84 211.637 750.514 211.871 750.272 212.181C750.029 212.492 749.882 212.865 749.847 213.257L744 246.388C743.65 247.928 743.054 248.436 741.531 248.436H737.943C736.49 248.436 736.07 247.928 736.315 246.388L742.547 210.825C742.646 209.691 743.092 208.615 743.825 207.744C744.559 206.874 745.543 206.25 746.643 205.959C751.415 204.038 756.519 203.08 761.663 203.141C766.355 203.141 769.768 204.349 771.974 206.642C776.937 204.39 782.315 203.198 787.764 203.141Z" fill="#253746"/>
<path d="M838.147 203.142C850.401 203.142 856.318 209.722 854.532 219.873L852.151 233.769C850.401 243.92 842.593 249.731 830.304 249.731C818.015 249.731 812.133 243.325 813.831 233.174L816.317 219.278C818.102 209.197 826.12 203.142 838.147 203.142ZM837.131 210.142C829.954 210.142 825.017 213.643 823.897 219.523L821.516 233.524C820.413 239.405 824.159 242.905 831.319 242.905C838.479 242.905 843.433 239.405 844.554 233.524L847.022 219.523C848.055 213.52 844.379 210.02 837.131 210.02V210.142Z" fill="#253746"/>
<path d="M885.412 196.246L883.959 204.437H895.145C896.668 204.437 897.106 204.944 896.756 206.484L896.248 209.46C895.985 211 895.478 211.507 893.937 211.507H882.768L879.267 231.389C877.657 240.683 880.037 242.468 888.318 242.468C889.841 242.468 890.366 242.905 890.068 244.515L889.561 247.596C889.21 249.118 888.703 249.556 887.092 249.643C873.525 249.976 869.079 245.793 871.635 231.547L875.223 211.507H868.221C866.68 211.507 866.26 211 866.47 209.46L866.978 206.484C867.241 204.944 867.836 204.437 869.376 204.437H876.379L877.832 196.246C878.094 194.706 878.689 194.198 880.23 194.198H883.731C885.237 194.268 885.674 194.706 885.412 196.246Z" fill="#253746"/>
<path d="M917.15 206.519L910.148 246.423C910.152 246.722 910.09 247.019 909.967 247.292C909.844 247.565 909.663 247.807 909.436 248.003C909.209 248.198 908.942 248.341 908.653 248.422C908.365 248.503 908.062 248.519 907.767 248.471H904.266C902.725 248.471 902.305 247.963 902.638 246.423L909.64 206.519C909.903 204.979 910.498 204.472 912.021 204.472H915.557C917.063 204.437 917.395 204.944 917.15 206.519ZM920.126 192.518V193.201C919.531 196.281 918.376 197.296 915.277 197.296H914.752C911.601 197.296 910.831 196.368 911.426 193.201V192.518C912.021 189.455 913.176 188.423 916.292 188.423H916.8C919.881 188.3 920.809 189.333 920.126 192.396V192.518Z" fill="#253746"/>
<path d="M952.319 203.142C964.573 203.142 970.49 209.722 968.687 219.873L966.324 233.769C964.573 243.92 956.765 249.731 944.476 249.731C932.187 249.731 926.305 243.325 928.021 233.174L930.489 219.278C932.24 209.197 940.257 203.142 952.319 203.142ZM951.286 210.142C944.126 210.142 939.172 213.643 938.069 219.523L935.671 233.524C934.568 239.405 938.314 242.905 945.492 242.905C952.669 242.905 957.606 239.405 958.709 233.524L961.177 219.523C962.192 213.52 958.516 210.02 951.269 210.02L951.286 210.142Z" fill="#253746"/>
<path d="M1006.59 203.141C1018.53 203.141 1022.71 209.967 1020.93 220.643L1016.32 246.388C1016.06 247.928 1015.46 248.436 1013.92 248.436H1010.42C1008.88 248.436 1008.53 247.928 1008.79 246.388L1013.4 220.293C1014.59 213.555 1011.79 210.142 1004.43 210.142C1000.99 210.158 997.572 210.677 994.281 211.682C993.936 211.777 993.629 211.976 993.4 212.252C993.172 212.527 993.033 212.866 993.003 213.222L987.209 246.475C986.859 248.015 986.263 248.523 984.74 248.523H981.152C979.699 248.523 979.279 248.015 979.524 246.475L985.581 210.825C985.656 209.693 986.095 208.615 986.834 207.754C987.572 206.893 988.57 206.294 989.677 206.047C995.081 204.022 1000.82 203.037 1006.59 203.141Z" fill="#253746"/>
<path d="M1044.94 1.55745C1046.84 2.56768 1048.4 4.11365 1049.42 6.00287C1050.51 8.05498 1051.05 10.3504 1051 12.671C1051.05 14.9916 1050.51 17.287 1049.42 19.3391C1048.4 21.2231 1046.84 22.7632 1044.94 23.767C1042.85 24.8033 1040.55 25.3426 1038.22 25.3426C1035.89 25.3426 1033.59 24.8033 1031.5 23.767C1029.61 22.7621 1028.05 21.2219 1027.03 19.3391C1025.93 17.2917 1025.39 14.9941 1025.44 12.671C1025.39 10.3479 1025.93 8.05026 1027.03 6.00287C1028.05 4.11489 1029.61 2.56875 1031.5 1.55745C1033.59 0.53273 1035.89 0 1038.22 0C1040.55 0 1042.85 0.53273 1044.94 1.55745ZM1043.45 21.4568C1044.95 20.6707 1046.17 19.4503 1046.96 17.9565C1047.79 16.3342 1048.21 14.5304 1048.18 12.706C1048.21 10.8816 1047.79 9.07782 1046.96 7.4555C1046.17 5.96364 1044.95 4.7439 1043.45 3.95518C1041.82 3.14425 1040.03 2.72224 1038.2 2.72224C1036.38 2.72224 1034.58 3.14425 1032.95 3.95518C1031.46 4.75083 1030.25 5.96877 1029.45 7.4555C1028.61 9.07499 1028.19 10.8807 1028.22 12.706C1028.19 14.5313 1028.61 16.337 1029.45 17.9565C1030.24 19.4451 1031.46 20.6637 1032.95 21.4568C1034.58 22.2797 1036.38 22.7084 1038.2 22.7084C1040.03 22.7084 1041.83 22.2797 1043.45 21.4568ZM1043.45 12.8985C1042.85 13.6413 1042.01 14.1639 1041.07 14.3861L1044.58 19.5316H1041.25L1038.22 14.6487H1036.14V19.5316H1033.27V5.81035H1039.2C1040.53 5.7525 1041.84 6.18183 1042.88 7.01796C1043.34 7.41238 1043.71 7.90718 1043.96 8.46502C1044.2 9.02286 1044.32 9.62919 1044.3 10.2383C1044.33 11.1975 1044.02 12.1377 1043.44 12.8985H1043.45ZM1036.15 12.5485H1038.9C1040.57 12.5485 1041.41 11.8134 1041.41 10.3258C1041.41 8.83813 1040.57 8.08556 1038.9 8.08556H1036.15V12.5485Z" fill="#253746"/>
<path d="M848.93 74.3817C848.823 66.0045 848.274 57.6387 847.284 49.3194C846.417 38.5607 841.867 28.4298 834.4 20.6342C822.934 9.03067 808.806 3.72767 790.95 4.41024C770.749 5.19781 754.188 13.8436 741.531 30.1026L740.936 30.8727V30.7502C734.214 19.3566 725.286 11.6209 714.415 7.78805C696.331 1.43496 678.37 3.32514 660.969 13.4061C656.924 15.9044 653.078 18.7131 649.468 21.8069L647.805 23.1545V10.5008C647.805 10.2342 647.752 9.9702 647.65 9.72388C647.548 9.47757 647.399 9.25376 647.21 9.06524C647.021 8.87672 646.798 8.72718 646.551 8.62515C646.305 8.52313 646.041 8.47062 645.774 8.47062H606.316C605.777 8.47062 605.261 8.68451 604.88 9.06524C604.499 9.44598 604.285 9.96236 604.285 10.5008V168.593C604.285 169.131 604.499 169.648 604.88 170.029C605.261 170.409 605.777 170.623 606.316 170.623H645.757C646.283 170.605 646.782 170.383 647.147 170.004C647.513 169.626 647.718 169.12 647.717 168.593V165.285C647.717 158.722 647.717 152.141 647.717 145.578C647.717 129.144 647.717 112.15 647.84 95.4537C647.928 87.6059 648.624 79.7767 649.923 72.0365C651.796 60.958 657.363 52.7847 666.501 47.7618C677.005 41.9512 690.099 43.9814 696.926 52.4697C700.303 56.6069 702.407 61.6347 702.983 66.9436C703.876 75.6944 704.734 85.0752 704.734 94.4736C704.909 111.1 704.874 128.007 704.839 144.353C704.839 151.354 704.839 158.355 704.839 165.355C704.839 166.16 704.839 166.948 704.944 167.77V168.786C704.971 169.306 705.197 169.795 705.575 170.154C705.953 170.512 706.454 170.711 706.975 170.711H746.573C746.84 170.711 747.104 170.658 747.35 170.556C747.596 170.454 747.82 170.305 748.009 170.116C748.197 169.928 748.347 169.704 748.449 169.457C748.551 169.211 748.604 168.947 748.604 168.681V145.631C748.604 128.952 748.604 111.678 748.709 94.7186C748.834 87.0221 749.542 79.3461 750.827 71.7565C752.735 60.2579 758.634 51.9972 768.333 47.2542C776.088 43.4564 783.948 43.1238 790.46 46.3266C796.972 49.5294 801.174 55.62 802.819 63.7233C804.228 71.0608 804.949 78.5138 804.972 85.9853C805.148 105.237 805.13 124.716 805.095 143.583V168.558C805.095 168.825 805.148 169.089 805.25 169.335C805.352 169.581 805.501 169.805 805.69 169.994C805.878 170.182 806.102 170.332 806.349 170.434C806.595 170.536 806.859 170.588 807.126 170.588H846.969C847.238 170.595 847.505 170.548 847.756 170.45C848.006 170.352 848.234 170.205 848.427 170.018C848.619 169.83 848.772 169.606 848.877 169.358C848.981 169.11 849.035 168.844 849.035 168.576V140.31C849.035 118.328 849.035 96.3638 848.93 74.3817Z" fill="#253746"/>
<path d="M244.715 73.5066C244.627 65.392 244.095 57.2883 243.122 49.2318C241.178 32.0102 232.618 19.129 217.388 10.9383C207.706 5.84839 196.784 3.5918 185.877 4.42767C177.542 4.71814 169.348 6.67151 161.778 10.173C154.209 13.6744 147.415 18.6533 141.798 24.8171C140.047 26.5672 138.576 28.5099 137.001 30.4526L136.668 30.8551C129.666 19.0065 120.913 11.4633 109.972 7.78798C88.2296 0.507303 67.5201 4.30516 48.4563 19.094C46.7057 20.4242 45.1476 21.8943 43.5021 23.4344V10.5007C43.5021 9.96229 43.2881 9.44591 42.9073 9.06517C42.5265 8.68444 42.01 8.47054 41.4714 8.47054H2.03068C1.49211 8.47054 0.975599 8.68444 0.594773 9.06517C0.213946 9.44591 0 9.96229 0 10.5007L0 168.558C0 169.096 0.213946 169.613 0.594773 169.993C0.975599 170.374 1.49211 170.588 2.03068 170.588H41.5414C42.08 170.588 42.5965 170.374 42.9773 169.993C43.3582 169.613 43.5721 169.096 43.5721 168.558V167.228L43.7647 142.445C43.8522 123.194 43.9572 103.207 44.2373 83.605C44.1051 75.5865 45.9828 67.6624 49.6992 60.5554C54.7934 51.367 62.0758 46.099 71.3189 44.8039C85.1486 43.0538 94.5317 49.4068 97.7353 62.8831C99.4923 70.6605 100.39 78.6071 100.414 86.5803C100.659 105.517 100.606 124.786 100.571 143.426C100.571 150.73 100.571 158.034 100.571 165.338V168.488C100.571 169.026 100.785 169.543 101.166 169.923C101.547 170.304 102.063 170.518 102.602 170.518H142.498C143.036 170.518 143.553 170.304 143.934 169.923C144.315 169.543 144.528 169.026 144.528 168.488V145.263C144.528 128.567 144.528 111.293 144.651 94.316C144.715 86.6426 145.4 78.9869 146.699 71.4239C148.66 59.9778 154.629 51.8046 164.555 47.1316C172.328 43.4388 180.17 43.1938 186.613 46.4491C193.055 49.7044 197.116 55.7774 198.744 63.8282C200.147 71.2607 200.862 78.8066 200.88 86.3703C201.055 105.465 201.037 124.874 201.002 143.636V168.61C201.002 169.149 201.216 169.665 201.597 170.046C201.978 170.427 202.495 170.641 203.033 170.641H242.876C243.415 170.641 243.932 170.427 244.312 170.046C244.693 169.665 244.907 169.149 244.907 168.61V140.275C244.837 118.031 244.855 95.7687 244.715 73.5066Z" fill="#253746"/>
<path d="M1008.34 29.963C1000.28 21.8245 990.689 15.3647 980.118 10.9575C969.546 6.55041 958.206 4.28351 946.752 4.28809C901.552 4.28809 864.037 41.8466 863.039 88.0509C862.856 99.5809 864.981 111.031 869.289 121.728C873.597 132.425 880.002 142.153 888.125 150.339C895.624 158.052 904.587 164.191 914.488 168.399C924.39 172.606 935.031 174.796 945.789 174.841H946.822C999.34 174.841 1031.5 132.277 1032.25 91.2362C1032.57 79.9424 1030.62 68.6991 1026.51 58.1736C1022.41 47.6481 1016.22 38.0548 1008.34 29.963ZM910.305 70.3217C913.44 62.9978 918.67 56.764 925.339 52.4043C932.008 48.0446 939.817 45.7536 947.785 45.8195C949.247 45.8176 950.708 45.8935 952.162 46.047C972.573 48.2172 987.348 64.9662 988.101 86.7733C988.101 87.4383 988.101 88.1034 988.206 88.7509V89.6435C987.996 106.148 982.114 118.276 970.245 126.729C964.698 130.487 958.322 132.847 951.664 133.606C945.006 134.365 938.264 133.5 932.012 131.087C919.443 126.187 910.848 115.546 907.784 101.125C905.446 90.8414 906.326 80.0882 910.305 70.3217Z" fill="#253746"/>
<path d="M502.419 4.53316C480.851 4.27064 459.214 13.7215 443.039 30.2606C435.272 38.0231 429.167 47.2848 425.095 57.4818C421.023 67.6788 419.069 78.5977 419.353 89.5736C419.11 100.57 421.078 111.503 425.141 121.725C429.204 131.946 435.278 141.248 443.004 149.079C450.656 157.045 459.822 163.404 469.965 167.782C480.107 172.161 491.021 174.472 502.068 174.579H502.594C550.175 174.264 587.55 136.985 587.672 89.7136C587.795 42.4417 550.367 4.9357 502.419 4.53316ZM468.387 65.1063C476.16 52.5051 487.224 46.082 502.279 45.592H503.714C523.601 45.592 539.811 59.3833 543.4 79.5801C543.75 81.7999 543.973 84.0379 544.065 86.2833C544.065 86.9658 544.065 87.5784 544.188 88.0334C544.188 107.058 537.815 119.799 524.336 128.095C518.68 131.52 512.291 133.553 505.696 134.024C499.1 134.496 492.486 133.393 486.401 130.807C474.287 125.557 466.041 114.916 463.205 100.862C460.405 87.2458 462.155 75.2572 468.387 65.1063Z" fill="#00CC00"/>
<path d="M419.808 9.39834C419.637 9.11461 419.4 8.87697 419.116 8.70614C418.832 8.53531 418.511 8.43647 418.18 8.41825H417.13C416.482 8.41825 415.957 8.41825 415.379 8.41825H405.611C397.033 8.41825 388.49 8.41825 379.93 8.41825C378.793 8.3538 377.666 8.66033 376.719 9.29164C375.772 9.92296 375.056 10.8449 374.678 11.9186C363.206 37.2959 351.71 62.65 340.191 87.9807L332.611 104.397L327.359 91.726C316.401 65.1235 305.454 38.5035 294.518 11.8661C294.208 10.7408 293.512 9.76012 292.552 9.09493C291.592 8.42974 290.43 8.12215 289.267 8.22573C280.689 8.22573 272.128 8.22573 263.551 8.22573H253.835C253.292 8.22573 252.749 8.22573 252.084 8.22573H251.191C250.879 8.24679 250.575 8.34067 250.305 8.49988C250.034 8.65909 249.805 8.87923 249.635 9.14274C249.465 9.40626 249.359 9.70585 249.325 10.0176C249.291 10.3294 249.331 10.6447 249.441 10.9385L249.738 11.7961C249.949 12.3736 250.124 12.8812 250.334 13.3712L255.34 25.6224C272.881 68.8397 290.469 111.97 308.103 155.012C308.372 155.559 308.504 156.163 308.489 156.773C308.474 157.382 308.311 157.979 308.016 158.512C296.812 182.396 285.637 206.315 274.492 230.269L268.61 242.853C268.347 243.43 268.102 244.025 267.822 244.708L267.402 245.758C267.265 246.064 267.21 246.4 267.24 246.734C267.271 247.068 267.387 247.389 267.577 247.665C267.767 247.953 268.028 248.188 268.334 248.347C268.641 248.507 268.982 248.585 269.328 248.576H283.035C291.788 248.576 300.278 248.576 308.856 248.576C309.663 248.477 310.433 248.178 311.096 247.708C311.759 247.237 312.295 246.609 312.655 245.88C315.841 239.335 319.237 232.299 322.458 225.263C347.9 169.457 373.312 113.673 398.696 57.9129L413.558 25.3248C415.046 22.0695 416.534 18.7967 418.04 15.4364L419.913 11.2885C420.052 10.989 420.115 10.6599 420.097 10.3303C420.078 10.0007 419.979 9.68063 419.808 9.39834Z" fill="#253746"/>
</g>
<defs>
<clipPath id="clip0_11004_28884">
<rect width="1051" height="269" fill="white"/>
</clipPath>
</defs>
</svg>
